G04 #@! TF.GenerationSoftware,KiCad,Pcbnew,(5.1.2-1)-1*
G04 #@! TF.CreationDate,2021-01-11T16:16:00-06:00*
G04 #@! TF.ProjectId,BulbCoupler,42756c62-436f-4757-906c-65722e6b6963,rev?*
G04 #@! TF.SameCoordinates,Original*
G04 #@! TF.FileFunction,Soldermask,Top*
G04 #@! TF.FilePolarity,Negative*
%FSLAX46Y46*%
G04 Gerber Fmt 4.6, Leading zero omitted, Abs format (unit mm)*
G04 Created by KiCad (PCBNEW (5.1.2-1)-1) date 2021-01-11 16:16:00*
%MOMM*%
%LPD*%
G04 APERTURE LIST*
%ADD10C,0.100000*%
G04 APERTURE END LIST*
D10*
G36*
X57650443Y-56645519D02*
G01*
X57716627Y-56652037D01*
X57886466Y-56703557D01*
X58042991Y-56787222D01*
X58078729Y-56816552D01*
X58180186Y-56899814D01*
X58263448Y-57001271D01*
X58292778Y-57037009D01*
X58376443Y-57193534D01*
X58427963Y-57363373D01*
X58445359Y-57540000D01*
X58427963Y-57716627D01*
X58376443Y-57886466D01*
X58292778Y-58042991D01*
X58263448Y-58078729D01*
X58180186Y-58180186D01*
X58078729Y-58263448D01*
X58042991Y-58292778D01*
X57886466Y-58376443D01*
X57716627Y-58427963D01*
X57650443Y-58434481D01*
X57584260Y-58441000D01*
X57495740Y-58441000D01*
X57429557Y-58434481D01*
X57363373Y-58427963D01*
X57193534Y-58376443D01*
X57037009Y-58292778D01*
X57001271Y-58263448D01*
X56899814Y-58180186D01*
X56816552Y-58078729D01*
X56787222Y-58042991D01*
X56703557Y-57886466D01*
X56652037Y-57716627D01*
X56634641Y-57540000D01*
X56652037Y-57363373D01*
X56703557Y-57193534D01*
X56787222Y-57037009D01*
X56816552Y-57001271D01*
X56899814Y-56899814D01*
X57001271Y-56816552D01*
X57037009Y-56787222D01*
X57193534Y-56703557D01*
X57363373Y-56652037D01*
X57429557Y-56645519D01*
X57495740Y-56639000D01*
X57584260Y-56639000D01*
X57650443Y-56645519D01*
X57650443Y-56645519D01*
G37*
G36*
X55110443Y-56645519D02*
G01*
X55176627Y-56652037D01*
X55346466Y-56703557D01*
X55502991Y-56787222D01*
X55538729Y-56816552D01*
X55640186Y-56899814D01*
X55723448Y-57001271D01*
X55752778Y-57037009D01*
X55836443Y-57193534D01*
X55887963Y-57363373D01*
X55905359Y-57540000D01*
X55887963Y-57716627D01*
X55836443Y-57886466D01*
X55752778Y-58042991D01*
X55723448Y-58078729D01*
X55640186Y-58180186D01*
X55538729Y-58263448D01*
X55502991Y-58292778D01*
X55346466Y-58376443D01*
X55176627Y-58427963D01*
X55110443Y-58434481D01*
X55044260Y-58441000D01*
X54955740Y-58441000D01*
X54889557Y-58434481D01*
X54823373Y-58427963D01*
X54653534Y-58376443D01*
X54497009Y-58292778D01*
X54461271Y-58263448D01*
X54359814Y-58180186D01*
X54276552Y-58078729D01*
X54247222Y-58042991D01*
X54163557Y-57886466D01*
X54112037Y-57716627D01*
X54094641Y-57540000D01*
X54112037Y-57363373D01*
X54163557Y-57193534D01*
X54247222Y-57037009D01*
X54276552Y-57001271D01*
X54359814Y-56899814D01*
X54461271Y-56816552D01*
X54497009Y-56787222D01*
X54653534Y-56703557D01*
X54823373Y-56652037D01*
X54889557Y-56645519D01*
X54955740Y-56639000D01*
X55044260Y-56639000D01*
X55110443Y-56645519D01*
X55110443Y-56645519D01*
G37*
G36*
X57650442Y-54105518D02*
G01*
X57716627Y-54112037D01*
X57886466Y-54163557D01*
X58042991Y-54247222D01*
X58078729Y-54276552D01*
X58180186Y-54359814D01*
X58263448Y-54461271D01*
X58292778Y-54497009D01*
X58376443Y-54653534D01*
X58427963Y-54823373D01*
X58445359Y-55000000D01*
X58427963Y-55176627D01*
X58376443Y-55346466D01*
X58292778Y-55502991D01*
X58263448Y-55538729D01*
X58180186Y-55640186D01*
X58078729Y-55723448D01*
X58042991Y-55752778D01*
X57886466Y-55836443D01*
X57716627Y-55887963D01*
X57650442Y-55894482D01*
X57584260Y-55901000D01*
X57495740Y-55901000D01*
X57429558Y-55894482D01*
X57363373Y-55887963D01*
X57193534Y-55836443D01*
X57037009Y-55752778D01*
X57001271Y-55723448D01*
X56899814Y-55640186D01*
X56816552Y-55538729D01*
X56787222Y-55502991D01*
X56703557Y-55346466D01*
X56652037Y-55176627D01*
X56634641Y-55000000D01*
X56652037Y-54823373D01*
X56703557Y-54653534D01*
X56787222Y-54497009D01*
X56816552Y-54461271D01*
X56899814Y-54359814D01*
X57001271Y-54276552D01*
X57037009Y-54247222D01*
X57193534Y-54163557D01*
X57363373Y-54112037D01*
X57429558Y-54105518D01*
X57495740Y-54099000D01*
X57584260Y-54099000D01*
X57650442Y-54105518D01*
X57650442Y-54105518D01*
G37*
G36*
X55901000Y-55901000D02*
G01*
X54099000Y-55901000D01*
X54099000Y-54099000D01*
X55901000Y-54099000D01*
X55901000Y-55901000D01*
X55901000Y-55901000D01*
G37*
M02*
