M48
; DRILL file {KiCad (5.1.2-1)-1} date Monday, 11 January 2021 at 16:08:13
; FORMAT={-:-/ absolute / metric / decimal}
; #@! TF.CreationDate,2021-01-11T16:08:13-06:00
; #@! TF.GenerationSoftware,Kicad,Pcbnew,(5.1.2-1)-1
; #@! TF.FileFunction,Plated,1,2,PTH
FMAT,2
METRIC
T1C0.750
T2C0.800
T3C0.900
T4C1.000
T5C1.100
T6C1.200
T7C1.500
T8C2.200
%
G90
G05
T1
X77.5Y-73.5
X77.5Y-74.77
X77.5Y-76.04
X85.0Y-69.75
X90.08Y-69.75
X77.5Y-79.5
X77.5Y-80.77
X77.5Y-82.04
X70.96Y-119.75
X72.23Y-119.75
X73.5Y-119.75
X85.0Y-89.0
X85.0Y-94.08
T2
X53.88Y-106.5
X61.5Y-106.5
X130.0Y-131.0
X130.0Y-138.62
X65.38Y-82.5
X73.0Y-82.5
X88.0Y-85.5
X95.62Y-85.5
X81.5Y-61.5
X81.5Y-69.12
X53.88Y-109.75
X61.5Y-109.75
X85.0Y-79.5
X85.0Y-82.0
X65.38Y-76.5
X73.0Y-76.5
X69.75Y-126.0
X69.75Y-131.0
X65.38Y-85.5
X73.0Y-85.5
X74.0Y-64.25
X74.0Y-69.25
X54.5Y-85.0
X54.5Y-87.5
X88.0Y-76.5
X95.62Y-76.5
X88.0Y-98.25
X88.0Y-100.79
X88.0Y-103.33
X88.0Y-105.87
X88.0Y-108.41
X88.0Y-110.95
X88.0Y-113.49
X95.62Y-98.25
X95.62Y-100.79
X95.62Y-103.33
X95.62Y-105.87
X95.62Y-108.41
X95.62Y-110.95
X95.62Y-113.49
X53.88Y-103.5
X61.5Y-103.5
X85.0Y-98.25
X85.0Y-100.75
X74.75Y-126.0
X74.75Y-131.0
X58.5Y-85.0
X58.5Y-87.5
X88.0Y-82.5
X95.62Y-82.5
X88.0Y-88.5
X95.62Y-88.5
X78.5Y-61.5
X78.5Y-69.12
X85.0Y-73.5
X85.0Y-76.0
X68.38Y-115.5
X76.0Y-115.5
X65.38Y-79.5
X73.0Y-79.5
X75.25Y-85.5
X82.87Y-85.5
X130.0Y-61.5
X130.0Y-69.12
X53.88Y-112.75
X61.5Y-112.75
X65.38Y-73.5
X73.0Y-73.5
X88.0Y-79.5
X95.62Y-79.5
X85.0Y-111.0
X85.0Y-113.5
X70.0Y-61.63
X70.0Y-69.25
X85.0Y-105.75
X85.0Y-108.25
X88.0Y-73.5
X95.62Y-73.5
T3
X61.96Y-55.0
X64.5Y-55.0
X107.5Y-141.5
X110.0Y-136.5
X112.5Y-141.5
X107.5Y-58.5
X110.0Y-63.5
X112.5Y-58.5
X135.5Y-145.0
X138.04Y-145.0
X87.5Y-141.5
X90.0Y-136.5
X92.5Y-141.5
X135.5Y-55.0
X138.04Y-55.0
X87.5Y-58.5
X90.0Y-63.5
X92.5Y-58.5
X56.5Y-135.5
X56.5Y-138.04
T4
X107.5Y-54.0
X110.0Y-54.0
X112.5Y-54.0
X69.67Y-134.5
X72.21Y-134.5
X74.75Y-134.5
X87.5Y-146.0
X90.0Y-146.0
X92.5Y-146.0
X87.5Y-54.0
X90.0Y-54.0
X92.5Y-54.0
X58.0Y-74.0
X58.0Y-79.0
X107.5Y-146.0
X110.0Y-146.0
X112.5Y-146.0
T5
X119.46Y-89.75
X122.0Y-89.75
X124.54Y-89.75
X64.63Y-90.29
X64.63Y-92.83
X64.63Y-95.37
X64.63Y-97.91
X64.63Y-100.45
X64.63Y-102.99
X64.63Y-105.53
X64.63Y-108.07
X64.63Y-110.61
X64.63Y-113.15
X64.63Y-115.69
X64.63Y-118.23
X64.63Y-120.77
X64.63Y-123.31
X64.63Y-125.85
X64.63Y-128.39
X64.63Y-130.93
X64.63Y-133.47
X64.63Y-136.01
X64.63Y-138.55
X64.63Y-141.09
X64.63Y-143.63
X64.63Y-146.17
X64.63Y-148.71
X79.87Y-90.29
X79.87Y-92.83
X79.87Y-95.37
X79.87Y-97.91
X79.87Y-100.45
X79.87Y-102.99
X79.87Y-105.53
X79.87Y-108.07
X79.87Y-110.61
X79.87Y-113.15
X79.87Y-115.69
X79.87Y-118.23
X79.87Y-120.77
X79.87Y-123.31
X79.87Y-125.85
X79.87Y-128.39
X79.87Y-130.93
X79.87Y-133.47
X79.87Y-136.01
X79.87Y-138.55
X79.87Y-141.09
X79.87Y-143.63
X79.87Y-146.17
X79.87Y-148.71
X56.5Y-121.0
X56.5Y-124.0
X56.5Y-127.0
X119.5Y-82.0
X122.04Y-82.0
X124.58Y-82.0
X119.46Y-110.25
X122.0Y-110.25
X124.54Y-110.25
X133.5Y-131.0
X133.5Y-138.62
X66.5Y-61.63
X66.5Y-69.25
X119.42Y-118.0
X121.96Y-118.0
X124.5Y-118.0
X133.5Y-61.5
X133.5Y-69.12
T6
X142.0Y-63.44
X142.0Y-63.44
X142.0Y-67.25
X142.0Y-67.25
X58.0Y-63.5
X58.0Y-63.5
X58.0Y-67.31
X58.0Y-67.31
X142.0Y-132.69
X142.0Y-132.69
X142.0Y-136.5
X142.0Y-136.5
T7
X53.5Y-95.0
X58.5Y-90.0
X58.5Y-92.5
X58.5Y-97.5
X58.5Y-100.0
T8
X105.6Y-61.0
X114.4Y-61.0
X85.6Y-139.0
X94.4Y-139.0
X85.6Y-61.0
X94.4Y-61.0
X105.6Y-139.0
X114.4Y-139.0
T2
G00X57.25Y-118.15
M15
G01X55.75Y-118.15
M16
G05
G00X57.25Y-129.85
M15
G01X55.75Y-129.85
M16
G05
T0
M30
